<mxfile host="app.diagrams.net" modified="2024-05-28T20:54:47.680Z" agent="Mozilla/5.0 (Windows NT 10.0; Win64; x64) AppleWebKit/537.36 (KHTML, like Gecko) Chrome/125.0.0.0 Safari/537.36" etag="vBHUHIdWO2XohJxp83at" version="24.3.0" type="google">
  <diagram name="Страница — 1" id="9LeteuSrGpQ5vU6WMTRl">
    <mxGraphModel dx="2790" dy="1243" grid="1" gridSize="10" guides="1" tooltips="1" connect="1" arrows="1" fold="1" page="1" pageScale="1" pageWidth="3300" pageHeight="2339" math="0" shadow="0">
      <root>
        <mxCell id="0" />
        <mxCell id="1" parent="0" />
        <mxCell id="XhWbwKtLs4Pgp_W8XnBZ-102" style="edgeStyle=orthogonalEdgeStyle;rounded=0;orthogonalLoop=1;jettySize=auto;html=1;entryX=0.5;entryY=0;entryDx=0;entryDy=0;endArrow=none;endFill=0;" parent="1" source="XhWbwKtLs4Pgp_W8XnBZ-1" target="XhWbwKtLs4Pgp_W8XnBZ-47" edge="1">
          <mxGeometry relative="1" as="geometry" />
        </mxCell>
        <mxCell id="XhWbwKtLs4Pgp_W8XnBZ-103" value="&lt;font style=&quot;font-size: 13px;&quot;&gt;1&lt;/font&gt;" style="text;html=1;align=center;verticalAlign=middle;resizable=0;points=[];autosize=1;strokeColor=none;fillColor=none;" parent="1" vertex="1">
          <mxGeometry x="260" y="340" width="30" height="30" as="geometry" />
        </mxCell>
        <mxCell id="XhWbwKtLs4Pgp_W8XnBZ-104" value="&lt;font style=&quot;font-size: 13px;&quot;&gt;M&lt;/font&gt;" style="text;html=1;align=center;verticalAlign=middle;resizable=0;points=[];autosize=1;strokeColor=none;fillColor=none;" parent="1" vertex="1">
          <mxGeometry x="260" y="406" width="30" height="30" as="geometry" />
        </mxCell>
        <mxCell id="XhWbwKtLs4Pgp_W8XnBZ-110" value="" style="group" parent="1" vertex="1" connectable="0">
          <mxGeometry x="170" y="436" width="180" height="254" as="geometry" />
        </mxCell>
        <mxCell id="XhWbwKtLs4Pgp_W8XnBZ-47" value="Заказ" style="shape=table;startSize=30;container=1;collapsible=0;childLayout=tableLayout;fixedRows=1;rowLines=0;fontStyle=0;strokeColor=default;fontSize=16;" parent="XhWbwKtLs4Pgp_W8XnBZ-110" vertex="1">
          <mxGeometry width="180" height="200" as="geometry" />
        </mxCell>
        <mxCell id="XhWbwKtLs4Pgp_W8XnBZ-48" value="" style="shape=tableRow;horizontal=0;startSize=0;swimlaneHead=0;swimlaneBody=0;top=0;left=0;bottom=0;right=0;collapsible=0;dropTarget=0;fillColor=none;points=[[0,0.5],[1,0.5]];portConstraint=eastwest;strokeColor=inherit;fontSize=16;" parent="XhWbwKtLs4Pgp_W8XnBZ-47" vertex="1">
          <mxGeometry y="30" width="180" height="30" as="geometry" />
        </mxCell>
        <mxCell id="XhWbwKtLs4Pgp_W8XnBZ-49" value="" style="shape=partialRectangle;html=1;whiteSpace=wrap;connectable=0;fillColor=none;top=0;left=0;bottom=0;right=0;overflow=hidden;pointerEvents=1;strokeColor=inherit;fontSize=16;" parent="XhWbwKtLs4Pgp_W8XnBZ-48" vertex="1">
          <mxGeometry width="40" height="30" as="geometry">
            <mxRectangle width="40" height="30" as="alternateBounds" />
          </mxGeometry>
        </mxCell>
        <mxCell id="XhWbwKtLs4Pgp_W8XnBZ-50" value="&lt;font style=&quot;vertical-align: inherit;&quot;&gt;&lt;font style=&quot;vertical-align: inherit;&quot;&gt;&lt;b&gt;id заказа&lt;/b&gt;&lt;/font&gt;&lt;/font&gt;" style="shape=partialRectangle;html=1;whiteSpace=wrap;connectable=0;fillColor=none;top=0;left=0;bottom=0;right=0;align=left;spacingLeft=6;overflow=hidden;strokeColor=inherit;fontSize=16;" parent="XhWbwKtLs4Pgp_W8XnBZ-48" vertex="1">
          <mxGeometry x="40" width="140" height="30" as="geometry">
            <mxRectangle width="140" height="30" as="alternateBounds" />
          </mxGeometry>
        </mxCell>
        <mxCell id="XhWbwKtLs4Pgp_W8XnBZ-51" value="" style="shape=tableRow;horizontal=0;startSize=0;swimlaneHead=0;swimlaneBody=0;top=0;left=0;bottom=0;right=0;collapsible=0;dropTarget=0;fillColor=none;points=[[0,0.5],[1,0.5]];portConstraint=eastwest;strokeColor=inherit;fontSize=16;" parent="XhWbwKtLs4Pgp_W8XnBZ-47" vertex="1">
          <mxGeometry y="60" width="180" height="30" as="geometry" />
        </mxCell>
        <mxCell id="XhWbwKtLs4Pgp_W8XnBZ-52" value="" style="shape=partialRectangle;html=1;whiteSpace=wrap;connectable=0;fillColor=none;top=0;left=0;bottom=0;right=0;overflow=hidden;strokeColor=inherit;fontSize=16;" parent="XhWbwKtLs4Pgp_W8XnBZ-51" vertex="1">
          <mxGeometry width="40" height="30" as="geometry">
            <mxRectangle width="40" height="30" as="alternateBounds" />
          </mxGeometry>
        </mxCell>
        <mxCell id="XhWbwKtLs4Pgp_W8XnBZ-53" value="Дата заказа" style="shape=partialRectangle;html=1;whiteSpace=wrap;connectable=0;fillColor=none;top=0;left=0;bottom=0;right=0;align=left;spacingLeft=6;overflow=hidden;strokeColor=inherit;fontSize=16;" parent="XhWbwKtLs4Pgp_W8XnBZ-51" vertex="1">
          <mxGeometry x="40" width="140" height="30" as="geometry">
            <mxRectangle width="140" height="30" as="alternateBounds" />
          </mxGeometry>
        </mxCell>
        <mxCell id="XhWbwKtLs4Pgp_W8XnBZ-54" value="" style="shape=tableRow;horizontal=0;startSize=0;swimlaneHead=0;swimlaneBody=0;top=0;left=0;bottom=0;right=0;collapsible=0;dropTarget=0;fillColor=none;points=[[0,0.5],[1,0.5]];portConstraint=eastwest;strokeColor=inherit;fontSize=16;" parent="XhWbwKtLs4Pgp_W8XnBZ-47" vertex="1">
          <mxGeometry y="90" width="180" height="30" as="geometry" />
        </mxCell>
        <mxCell id="XhWbwKtLs4Pgp_W8XnBZ-55" value="" style="shape=partialRectangle;html=1;whiteSpace=wrap;connectable=0;fillColor=none;top=0;left=0;bottom=0;right=0;overflow=hidden;strokeColor=inherit;fontSize=16;" parent="XhWbwKtLs4Pgp_W8XnBZ-54" vertex="1">
          <mxGeometry width="40" height="30" as="geometry">
            <mxRectangle width="40" height="30" as="alternateBounds" />
          </mxGeometry>
        </mxCell>
        <mxCell id="XhWbwKtLs4Pgp_W8XnBZ-56" value="Стоимость" style="shape=partialRectangle;html=1;whiteSpace=wrap;connectable=0;fillColor=none;top=0;left=0;bottom=0;right=0;align=left;spacingLeft=6;overflow=hidden;strokeColor=inherit;fontSize=16;" parent="XhWbwKtLs4Pgp_W8XnBZ-54" vertex="1">
          <mxGeometry x="40" width="140" height="30" as="geometry">
            <mxRectangle width="140" height="30" as="alternateBounds" />
          </mxGeometry>
        </mxCell>
        <mxCell id="XhWbwKtLs4Pgp_W8XnBZ-57" value="" style="endArrow=none;html=1;rounded=0;entryX=0.222;entryY=0.98;entryDx=0;entryDy=0;entryPerimeter=0;" parent="XhWbwKtLs4Pgp_W8XnBZ-110" target="XhWbwKtLs4Pgp_W8XnBZ-54" edge="1">
          <mxGeometry width="50" height="50" relative="1" as="geometry">
            <mxPoint x="40" y="152.4" as="sourcePoint" />
            <mxPoint x="130" y="132.08" as="targetPoint" />
          </mxGeometry>
        </mxCell>
        <mxCell id="XhWbwKtLs4Pgp_W8XnBZ-58" value="Статус заказа" style="shape=partialRectangle;html=1;whiteSpace=wrap;connectable=0;fillColor=none;top=0;left=0;bottom=0;right=0;align=left;spacingLeft=6;overflow=hidden;strokeColor=inherit;fontSize=16;" parent="XhWbwKtLs4Pgp_W8XnBZ-110" vertex="1">
          <mxGeometry x="40" y="117.85600000000001" width="140" height="34.544000000000004" as="geometry">
            <mxRectangle width="140" height="50" as="alternateBounds" />
          </mxGeometry>
        </mxCell>
        <mxCell id="XhWbwKtLs4Pgp_W8XnBZ-84" value="&lt;font style=&quot;vertical-align: inherit;&quot;&gt;&lt;font style=&quot;vertical-align: inherit;&quot;&gt;&lt;i&gt;id клиента&lt;/i&gt;&lt;/font&gt;&lt;/font&gt;" style="shape=partialRectangle;html=1;whiteSpace=wrap;connectable=0;fillColor=none;top=0;left=0;bottom=0;right=0;align=left;spacingLeft=6;overflow=hidden;strokeColor=inherit;fontSize=16;" parent="XhWbwKtLs4Pgp_W8XnBZ-110" vertex="1">
          <mxGeometry x="40" y="152.4" width="140" height="30.48" as="geometry">
            <mxRectangle width="140" height="30" as="alternateBounds" />
          </mxGeometry>
        </mxCell>
        <mxCell id="XhWbwKtLs4Pgp_W8XnBZ-86" value="" style="endArrow=none;html=1;rounded=0;" parent="XhWbwKtLs4Pgp_W8XnBZ-110" edge="1">
          <mxGeometry width="50" height="50" relative="1" as="geometry">
            <mxPoint x="40" y="194" as="sourcePoint" />
            <mxPoint x="40" y="152.4" as="targetPoint" />
          </mxGeometry>
        </mxCell>
        <mxCell id="XhWbwKtLs4Pgp_W8XnBZ-111" value="" style="group" parent="1" vertex="1" connectable="0">
          <mxGeometry x="170" y="170" width="180" height="170" as="geometry" />
        </mxCell>
        <mxCell id="XhWbwKtLs4Pgp_W8XnBZ-1" value="Клиент" style="shape=table;startSize=30;container=1;collapsible=0;childLayout=tableLayout;fixedRows=1;rowLines=0;fontStyle=0;strokeColor=default;fontSize=16;" parent="XhWbwKtLs4Pgp_W8XnBZ-111" vertex="1">
          <mxGeometry width="180" height="170" as="geometry" />
        </mxCell>
        <mxCell id="XhWbwKtLs4Pgp_W8XnBZ-2" value="" style="shape=tableRow;horizontal=0;startSize=0;swimlaneHead=0;swimlaneBody=0;top=0;left=0;bottom=0;right=0;collapsible=0;dropTarget=0;fillColor=none;points=[[0,0.5],[1,0.5]];portConstraint=eastwest;strokeColor=inherit;fontSize=16;" parent="XhWbwKtLs4Pgp_W8XnBZ-1" vertex="1">
          <mxGeometry y="30" width="180" height="30" as="geometry" />
        </mxCell>
        <mxCell id="XhWbwKtLs4Pgp_W8XnBZ-3" value="" style="shape=partialRectangle;html=1;whiteSpace=wrap;connectable=0;fillColor=none;top=0;left=0;bottom=0;right=0;overflow=hidden;pointerEvents=1;strokeColor=inherit;fontSize=16;" parent="XhWbwKtLs4Pgp_W8XnBZ-2" vertex="1">
          <mxGeometry width="40" height="30" as="geometry">
            <mxRectangle width="40" height="30" as="alternateBounds" />
          </mxGeometry>
        </mxCell>
        <mxCell id="XhWbwKtLs4Pgp_W8XnBZ-4" value="&lt;font style=&quot;vertical-align: inherit;&quot;&gt;&lt;font style=&quot;vertical-align: inherit;&quot;&gt;&lt;b&gt;id клиента&lt;/b&gt;&lt;/font&gt;&lt;/font&gt;" style="shape=partialRectangle;html=1;whiteSpace=wrap;connectable=0;fillColor=none;top=0;left=0;bottom=0;right=0;align=left;spacingLeft=6;overflow=hidden;strokeColor=inherit;fontSize=16;" parent="XhWbwKtLs4Pgp_W8XnBZ-2" vertex="1">
          <mxGeometry x="40" width="140" height="30" as="geometry">
            <mxRectangle width="140" height="30" as="alternateBounds" />
          </mxGeometry>
        </mxCell>
        <mxCell id="XhWbwKtLs4Pgp_W8XnBZ-8" value="" style="shape=tableRow;horizontal=0;startSize=0;swimlaneHead=0;swimlaneBody=0;top=0;left=0;bottom=0;right=0;collapsible=0;dropTarget=0;fillColor=none;points=[[0,0.5],[1,0.5]];portConstraint=eastwest;strokeColor=inherit;fontSize=16;" parent="XhWbwKtLs4Pgp_W8XnBZ-1" vertex="1">
          <mxGeometry y="60" width="180" height="30" as="geometry" />
        </mxCell>
        <mxCell id="XhWbwKtLs4Pgp_W8XnBZ-9" value="" style="shape=partialRectangle;html=1;whiteSpace=wrap;connectable=0;fillColor=none;top=0;left=0;bottom=0;right=0;overflow=hidden;strokeColor=inherit;fontSize=16;" parent="XhWbwKtLs4Pgp_W8XnBZ-8" vertex="1">
          <mxGeometry width="40" height="30" as="geometry">
            <mxRectangle width="40" height="30" as="alternateBounds" />
          </mxGeometry>
        </mxCell>
        <mxCell id="XhWbwKtLs4Pgp_W8XnBZ-10" value="ФИО" style="shape=partialRectangle;html=1;whiteSpace=wrap;connectable=0;fillColor=none;top=0;left=0;bottom=0;right=0;align=left;spacingLeft=6;overflow=hidden;strokeColor=inherit;fontSize=16;" parent="XhWbwKtLs4Pgp_W8XnBZ-8" vertex="1">
          <mxGeometry x="40" width="140" height="30" as="geometry">
            <mxRectangle width="140" height="30" as="alternateBounds" />
          </mxGeometry>
        </mxCell>
        <mxCell id="XhWbwKtLs4Pgp_W8XnBZ-11" value="" style="endArrow=none;html=1;rounded=0;entryX=0.222;entryY=0.98;entryDx=0;entryDy=0;entryPerimeter=0;" parent="XhWbwKtLs4Pgp_W8XnBZ-111" target="XhWbwKtLs4Pgp_W8XnBZ-8" edge="1">
          <mxGeometry width="50" height="50" relative="1" as="geometry">
            <mxPoint x="40" y="170" as="sourcePoint" />
            <mxPoint x="130" y="184.16666666666669" as="targetPoint" />
          </mxGeometry>
        </mxCell>
        <mxCell id="XhWbwKtLs4Pgp_W8XnBZ-12" value="Номер телефона" style="shape=partialRectangle;html=1;whiteSpace=wrap;connectable=0;fillColor=none;top=0;left=0;bottom=0;right=0;align=left;spacingLeft=6;overflow=hidden;strokeColor=inherit;fontSize=16;" parent="XhWbwKtLs4Pgp_W8XnBZ-111" vertex="1">
          <mxGeometry x="40" y="138.8305" width="140" height="31.1695" as="geometry">
            <mxRectangle width="140" height="50" as="alternateBounds" />
          </mxGeometry>
        </mxCell>
        <mxCell id="XhWbwKtLs4Pgp_W8XnBZ-122" value="Логин" style="shape=partialRectangle;html=1;whiteSpace=wrap;connectable=0;fillColor=none;top=0;left=0;bottom=0;right=0;align=left;spacingLeft=6;overflow=hidden;strokeColor=inherit;fontSize=16;" parent="XhWbwKtLs4Pgp_W8XnBZ-111" vertex="1">
          <mxGeometry x="40" y="90" width="140" height="25.5" as="geometry">
            <mxRectangle width="140" height="30" as="alternateBounds" />
          </mxGeometry>
        </mxCell>
        <mxCell id="XhWbwKtLs4Pgp_W8XnBZ-123" value="Пароль" style="shape=partialRectangle;html=1;whiteSpace=wrap;connectable=0;fillColor=none;top=0;left=0;bottom=0;right=0;align=left;spacingLeft=6;overflow=hidden;strokeColor=inherit;fontSize=16;" parent="XhWbwKtLs4Pgp_W8XnBZ-111" vertex="1">
          <mxGeometry x="40" y="115.5" width="140" height="25.5" as="geometry">
            <mxRectangle width="140" height="30" as="alternateBounds" />
          </mxGeometry>
        </mxCell>
        <mxCell id="XhWbwKtLs4Pgp_W8XnBZ-112" value="" style="group" parent="1" vertex="1" connectable="0">
          <mxGeometry x="450" y="230" width="180" height="150" as="geometry" />
        </mxCell>
        <mxCell id="XhWbwKtLs4Pgp_W8XnBZ-35" value="Товар" style="shape=table;startSize=30;container=1;collapsible=0;childLayout=tableLayout;fixedRows=1;rowLines=0;fontStyle=0;strokeColor=default;fontSize=16;" parent="XhWbwKtLs4Pgp_W8XnBZ-112" vertex="1">
          <mxGeometry width="180" height="150" as="geometry" />
        </mxCell>
        <mxCell id="XhWbwKtLs4Pgp_W8XnBZ-36" value="" style="shape=tableRow;horizontal=0;startSize=0;swimlaneHead=0;swimlaneBody=0;top=0;left=0;bottom=0;right=0;collapsible=0;dropTarget=0;fillColor=none;points=[[0,0.5],[1,0.5]];portConstraint=eastwest;strokeColor=inherit;fontSize=16;" parent="XhWbwKtLs4Pgp_W8XnBZ-35" vertex="1">
          <mxGeometry y="30" width="180" height="30" as="geometry" />
        </mxCell>
        <mxCell id="XhWbwKtLs4Pgp_W8XnBZ-37" value="" style="shape=partialRectangle;html=1;whiteSpace=wrap;connectable=0;fillColor=none;top=0;left=0;bottom=0;right=0;overflow=hidden;pointerEvents=1;strokeColor=inherit;fontSize=16;" parent="XhWbwKtLs4Pgp_W8XnBZ-36" vertex="1">
          <mxGeometry width="40" height="30" as="geometry">
            <mxRectangle width="40" height="30" as="alternateBounds" />
          </mxGeometry>
        </mxCell>
        <mxCell id="XhWbwKtLs4Pgp_W8XnBZ-38" value="&lt;font style=&quot;vertical-align: inherit;&quot;&gt;&lt;font style=&quot;vertical-align: inherit;&quot;&gt;&lt;b&gt;id товара&lt;/b&gt;&lt;/font&gt;&lt;/font&gt;" style="shape=partialRectangle;html=1;whiteSpace=wrap;connectable=0;fillColor=none;top=0;left=0;bottom=0;right=0;align=left;spacingLeft=6;overflow=hidden;strokeColor=inherit;fontSize=16;" parent="XhWbwKtLs4Pgp_W8XnBZ-36" vertex="1">
          <mxGeometry x="40" width="140" height="30" as="geometry">
            <mxRectangle width="140" height="30" as="alternateBounds" />
          </mxGeometry>
        </mxCell>
        <mxCell id="XhWbwKtLs4Pgp_W8XnBZ-39" value="" style="shape=tableRow;horizontal=0;startSize=0;swimlaneHead=0;swimlaneBody=0;top=0;left=0;bottom=0;right=0;collapsible=0;dropTarget=0;fillColor=none;points=[[0,0.5],[1,0.5]];portConstraint=eastwest;strokeColor=inherit;fontSize=16;" parent="XhWbwKtLs4Pgp_W8XnBZ-35" vertex="1">
          <mxGeometry y="60" width="180" height="30" as="geometry" />
        </mxCell>
        <mxCell id="XhWbwKtLs4Pgp_W8XnBZ-40" value="" style="shape=partialRectangle;html=1;whiteSpace=wrap;connectable=0;fillColor=none;top=0;left=0;bottom=0;right=0;overflow=hidden;strokeColor=inherit;fontSize=16;" parent="XhWbwKtLs4Pgp_W8XnBZ-39" vertex="1">
          <mxGeometry width="40" height="30" as="geometry">
            <mxRectangle width="40" height="30" as="alternateBounds" />
          </mxGeometry>
        </mxCell>
        <mxCell id="XhWbwKtLs4Pgp_W8XnBZ-41" value="Название" style="shape=partialRectangle;html=1;whiteSpace=wrap;connectable=0;fillColor=none;top=0;left=0;bottom=0;right=0;align=left;spacingLeft=6;overflow=hidden;strokeColor=inherit;fontSize=16;" parent="XhWbwKtLs4Pgp_W8XnBZ-39" vertex="1">
          <mxGeometry x="40" width="140" height="30" as="geometry">
            <mxRectangle width="140" height="30" as="alternateBounds" />
          </mxGeometry>
        </mxCell>
        <mxCell id="XhWbwKtLs4Pgp_W8XnBZ-42" value="" style="shape=tableRow;horizontal=0;startSize=0;swimlaneHead=0;swimlaneBody=0;top=0;left=0;bottom=0;right=0;collapsible=0;dropTarget=0;fillColor=none;points=[[0,0.5],[1,0.5]];portConstraint=eastwest;strokeColor=inherit;fontSize=16;" parent="XhWbwKtLs4Pgp_W8XnBZ-35" vertex="1">
          <mxGeometry y="90" width="180" height="30" as="geometry" />
        </mxCell>
        <mxCell id="XhWbwKtLs4Pgp_W8XnBZ-43" value="" style="shape=partialRectangle;html=1;whiteSpace=wrap;connectable=0;fillColor=none;top=0;left=0;bottom=0;right=0;overflow=hidden;strokeColor=inherit;fontSize=16;" parent="XhWbwKtLs4Pgp_W8XnBZ-42" vertex="1">
          <mxGeometry width="40" height="30" as="geometry">
            <mxRectangle width="40" height="30" as="alternateBounds" />
          </mxGeometry>
        </mxCell>
        <mxCell id="XhWbwKtLs4Pgp_W8XnBZ-44" value="Цена" style="shape=partialRectangle;html=1;whiteSpace=wrap;connectable=0;fillColor=none;top=0;left=0;bottom=0;right=0;align=left;spacingLeft=6;overflow=hidden;strokeColor=inherit;fontSize=16;" parent="XhWbwKtLs4Pgp_W8XnBZ-42" vertex="1">
          <mxGeometry x="40" width="140" height="30" as="geometry">
            <mxRectangle width="140" height="30" as="alternateBounds" />
          </mxGeometry>
        </mxCell>
        <mxCell id="XhWbwKtLs4Pgp_W8XnBZ-45" value="" style="endArrow=none;html=1;rounded=0;entryX=0.222;entryY=0.98;entryDx=0;entryDy=0;entryPerimeter=0;" parent="XhWbwKtLs4Pgp_W8XnBZ-112" target="XhWbwKtLs4Pgp_W8XnBZ-42" edge="1">
          <mxGeometry width="50" height="50" relative="1" as="geometry">
            <mxPoint x="40" y="150" as="sourcePoint" />
            <mxPoint x="130" y="130" as="targetPoint" />
          </mxGeometry>
        </mxCell>
        <mxCell id="XhWbwKtLs4Pgp_W8XnBZ-46" value="Артикул" style="shape=partialRectangle;html=1;whiteSpace=wrap;connectable=0;fillColor=none;top=0;left=0;bottom=0;right=0;align=left;spacingLeft=6;overflow=hidden;strokeColor=inherit;fontSize=16;" parent="XhWbwKtLs4Pgp_W8XnBZ-112" vertex="1">
          <mxGeometry x="40" y="116" width="140" height="34" as="geometry">
            <mxRectangle width="140" height="50" as="alternateBounds" />
          </mxGeometry>
        </mxCell>
        <mxCell id="XhWbwKtLs4Pgp_W8XnBZ-116" style="edgeStyle=orthogonalEdgeStyle;rounded=0;orthogonalLoop=1;jettySize=auto;html=1;endArrow=none;endFill=0;" parent="1" source="XhWbwKtLs4Pgp_W8XnBZ-54" target="XhWbwKtLs4Pgp_W8XnBZ-89" edge="1">
          <mxGeometry relative="1" as="geometry">
            <Array as="points">
              <mxPoint x="490" y="541" />
            </Array>
          </mxGeometry>
        </mxCell>
        <mxCell id="XhWbwKtLs4Pgp_W8XnBZ-117" value="&lt;font style=&quot;font-size: 13px;&quot;&gt;M&lt;/font&gt;" style="text;html=1;align=center;verticalAlign=middle;resizable=0;points=[];autosize=1;strokeColor=none;fillColor=none;" parent="1" vertex="1">
          <mxGeometry x="490" y="670" width="30" height="30" as="geometry" />
        </mxCell>
        <mxCell id="XhWbwKtLs4Pgp_W8XnBZ-118" value="&lt;span style=&quot;font-size: 13px;&quot;&gt;1&lt;/span&gt;" style="text;html=1;align=center;verticalAlign=middle;resizable=0;points=[];autosize=1;strokeColor=none;fillColor=none;" parent="1" vertex="1">
          <mxGeometry x="350" y="540" width="30" height="30" as="geometry" />
        </mxCell>
        <mxCell id="XhWbwKtLs4Pgp_W8XnBZ-124" style="edgeStyle=orthogonalEdgeStyle;rounded=0;orthogonalLoop=1;jettySize=auto;html=1;endArrow=none;endFill=0;" parent="1" edge="1">
          <mxGeometry relative="1" as="geometry">
            <mxPoint x="540" y="380" as="sourcePoint" />
            <mxPoint x="560" y="700" as="targetPoint" />
            <Array as="points">
              <mxPoint x="560" y="380" />
              <mxPoint x="560" y="700" />
              <mxPoint x="614" y="700" />
            </Array>
          </mxGeometry>
        </mxCell>
        <mxCell id="XhWbwKtLs4Pgp_W8XnBZ-125" value="1" style="text;html=1;align=center;verticalAlign=middle;resizable=0;points=[];autosize=1;strokeColor=none;fillColor=none;" parent="1" vertex="1">
          <mxGeometry x="560" y="380" width="30" height="30" as="geometry" />
        </mxCell>
        <mxCell id="XhWbwKtLs4Pgp_W8XnBZ-126" value="M" style="text;html=1;align=center;verticalAlign=middle;resizable=0;points=[];autosize=1;strokeColor=none;fillColor=none;" parent="1" vertex="1">
          <mxGeometry x="560" y="670" width="30" height="30" as="geometry" />
        </mxCell>
        <mxCell id="XhWbwKtLs4Pgp_W8XnBZ-129" value="" style="group" parent="1" vertex="1" connectable="0">
          <mxGeometry x="460" y="700" width="180" height="200" as="geometry" />
        </mxCell>
        <mxCell id="XhWbwKtLs4Pgp_W8XnBZ-108" value="" style="group" parent="XhWbwKtLs4Pgp_W8XnBZ-129" vertex="1" connectable="0">
          <mxGeometry width="180" height="200" as="geometry" />
        </mxCell>
        <mxCell id="XhWbwKtLs4Pgp_W8XnBZ-89" value="Поля заказа" style="shape=table;startSize=30;container=1;collapsible=0;childLayout=tableLayout;fixedRows=1;rowLines=0;fontStyle=0;strokeColor=default;fontSize=16;" parent="XhWbwKtLs4Pgp_W8XnBZ-108" vertex="1">
          <mxGeometry width="180" height="190" as="geometry" />
        </mxCell>
        <mxCell id="XhWbwKtLs4Pgp_W8XnBZ-93" value="" style="shape=tableRow;horizontal=0;startSize=0;swimlaneHead=0;swimlaneBody=0;top=0;left=0;bottom=0;right=0;collapsible=0;dropTarget=0;fillColor=none;points=[[0,0.5],[1,0.5]];portConstraint=eastwest;strokeColor=inherit;fontSize=16;" parent="XhWbwKtLs4Pgp_W8XnBZ-89" vertex="1">
          <mxGeometry y="30" width="180" height="30" as="geometry" />
        </mxCell>
        <mxCell id="XhWbwKtLs4Pgp_W8XnBZ-94" value="" style="shape=partialRectangle;html=1;whiteSpace=wrap;connectable=0;fillColor=none;top=0;left=0;bottom=0;right=0;overflow=hidden;strokeColor=inherit;fontSize=16;" parent="XhWbwKtLs4Pgp_W8XnBZ-93" vertex="1">
          <mxGeometry width="40" height="30" as="geometry">
            <mxRectangle width="40" height="30" as="alternateBounds" />
          </mxGeometry>
        </mxCell>
        <mxCell id="XhWbwKtLs4Pgp_W8XnBZ-95" value="&lt;b&gt;id поля заказа&lt;/b&gt;" style="shape=partialRectangle;html=1;whiteSpace=wrap;connectable=0;fillColor=none;top=0;left=0;bottom=0;right=0;align=left;spacingLeft=6;overflow=hidden;strokeColor=inherit;fontSize=16;" parent="XhWbwKtLs4Pgp_W8XnBZ-93" vertex="1">
          <mxGeometry x="40" width="140" height="30" as="geometry">
            <mxRectangle width="140" height="30" as="alternateBounds" />
          </mxGeometry>
        </mxCell>
        <mxCell id="XhWbwKtLs4Pgp_W8XnBZ-96" value="" style="shape=tableRow;horizontal=0;startSize=0;swimlaneHead=0;swimlaneBody=0;top=0;left=0;bottom=0;right=0;collapsible=0;dropTarget=0;fillColor=none;points=[[0,0.5],[1,0.5]];portConstraint=eastwest;strokeColor=inherit;fontSize=16;" parent="XhWbwKtLs4Pgp_W8XnBZ-89" vertex="1">
          <mxGeometry y="60" width="180" height="30" as="geometry" />
        </mxCell>
        <mxCell id="XhWbwKtLs4Pgp_W8XnBZ-97" value="" style="shape=partialRectangle;html=1;whiteSpace=wrap;connectable=0;fillColor=none;top=0;left=0;bottom=0;right=0;overflow=hidden;strokeColor=inherit;fontSize=16;" parent="XhWbwKtLs4Pgp_W8XnBZ-96" vertex="1">
          <mxGeometry width="40" height="30" as="geometry">
            <mxRectangle width="40" height="30" as="alternateBounds" />
          </mxGeometry>
        </mxCell>
        <mxCell id="XhWbwKtLs4Pgp_W8XnBZ-98" value="Количество" style="shape=partialRectangle;html=1;whiteSpace=wrap;connectable=0;fillColor=none;top=0;left=0;bottom=0;right=0;align=left;spacingLeft=6;overflow=hidden;strokeColor=inherit;fontSize=16;" parent="XhWbwKtLs4Pgp_W8XnBZ-96" vertex="1">
          <mxGeometry x="40" width="140" height="30" as="geometry">
            <mxRectangle width="140" height="30" as="alternateBounds" />
          </mxGeometry>
        </mxCell>
        <mxCell id="XhWbwKtLs4Pgp_W8XnBZ-99" value="Название товара" style="shape=partialRectangle;html=1;whiteSpace=wrap;connectable=0;fillColor=none;top=0;left=0;bottom=0;right=0;align=left;spacingLeft=6;overflow=hidden;strokeColor=inherit;fontSize=16;" parent="XhWbwKtLs4Pgp_W8XnBZ-108" vertex="1">
          <mxGeometry x="40" y="86" width="140" height="34" as="geometry">
            <mxRectangle width="140" height="50" as="alternateBounds" />
          </mxGeometry>
        </mxCell>
        <mxCell id="XhWbwKtLs4Pgp_W8XnBZ-100" value="" style="endArrow=none;html=1;rounded=0;" parent="XhWbwKtLs4Pgp_W8XnBZ-108" edge="1">
          <mxGeometry width="50" height="50" relative="1" as="geometry">
            <mxPoint x="40" y="150" as="sourcePoint" />
            <mxPoint x="40" y="90" as="targetPoint" />
          </mxGeometry>
        </mxCell>
        <mxCell id="XhWbwKtLs4Pgp_W8XnBZ-101" value="&lt;i&gt;id заказа&lt;/i&gt;" style="shape=partialRectangle;html=1;whiteSpace=wrap;connectable=0;fillColor=none;top=0;left=0;bottom=0;right=0;align=left;spacingLeft=6;overflow=hidden;strokeColor=inherit;fontSize=16;" parent="XhWbwKtLs4Pgp_W8XnBZ-108" vertex="1">
          <mxGeometry x="40" y="116" width="140" height="30" as="geometry">
            <mxRectangle width="140" height="30" as="alternateBounds" />
          </mxGeometry>
        </mxCell>
        <mxCell id="XhWbwKtLs4Pgp_W8XnBZ-127" value="&lt;i&gt;id товара&lt;/i&gt;" style="shape=partialRectangle;html=1;whiteSpace=wrap;connectable=0;fillColor=none;top=0;left=0;bottom=0;right=0;align=left;spacingLeft=6;overflow=hidden;strokeColor=inherit;fontSize=16;" parent="XhWbwKtLs4Pgp_W8XnBZ-108" vertex="1">
          <mxGeometry x="40" y="150" width="140" height="30" as="geometry">
            <mxRectangle width="140" height="30" as="alternateBounds" />
          </mxGeometry>
        </mxCell>
        <mxCell id="XhWbwKtLs4Pgp_W8XnBZ-128" value="" style="endArrow=none;html=1;rounded=0;" parent="XhWbwKtLs4Pgp_W8XnBZ-129" edge="1">
          <mxGeometry width="50" height="50" relative="1" as="geometry">
            <mxPoint x="40" y="190" as="sourcePoint" />
            <mxPoint x="40" y="150" as="targetPoint" />
          </mxGeometry>
        </mxCell>
      </root>
    </mxGraphModel>
  </diagram>
</mxfile>
